# xmcd CD database file
#
# Track frame offsets:
#	150
#	18002
#	34279
#	53256
#	71933
#
# Disc length: 1179 seconds
#
# Revision: 3
# Processed by: cddbd v1.4PL0 Copyright (c) Steve Scherf et al.
# Submitted via: Feurio! 1.62 - http://www.feurio.com
#
DISCID=37049905,38049905
DTITLE=The 1996 Tower Of Power DJ Team - Volume II
DYEAR=1900
DGENRE=blues
TTITLE0=Sequential One - Happy Feelings
TTITLE1=Snowflake - Party People
TTITLE2=Danny Lee - Here Comes The Music
TTITLE3=Bo Bellow - It's Summertime
TTITLE4=Jam Man - This Is Our House
EXTD=
EXTT0=
EXTT1=
EXTT2=
EXTT3=
EXTT4=
PLAYORDER=
